ffmpeg started on 2025-05-28 at 11:02:27
Report written to "D:\Convert\FFMetrics\reports\ssim_report-6.txt"
Log level: 32
Command line:
ffmpeg -hide_banner -nostdin -i "G:\\\xc0\xed\xe8\xec\xe5\\\xce\xed\xe3\xee\xe8\xed\xe3\xe8\\!_36_\xce\xf1\xe5\xed\xfc_2024\\JamClub\\MF \xcf\xf0\xe8\xe7\xf0\xe0\xea\\\xd2\xc2-2\\[JamClub] MF Ghost 2 - 06_HEVC.mkv" -i "G:\\\xc0\xed\xe8\xec\xe5\\\xce\xed\xe3\xee\xe8\xed\xe3\xe8\\!_36_\xce\xf1\xe5\xed\xfc_2024\\JamClub\\MF \xcf\xf0\xe8\xe7\xf0\xe0\xea\\\xd2\xc2-2\\[JamClub] MF Ghost 2 - 06.mp4" -lavfi "[0:v]settb=AVTB,setpts=PTS-STARTPTS,format=pix_fmts=yuv420p10,fps=24000/1001,scale=1920:1080:flags=bicubic[main];[1:v]settb=AVTB,setpts=PTS-STARTPTS,format=pix_fmts=yuv420p,fps=24000/1001,scale=1920:1080:flags=bicubic[ref];[main][ref]ssim=eof_action=endall:stats_file='D\\:/Convert/FFMetrics/logs/ssim_logfile-6.txt'" -f null -
Input #0, matroska,webm, from 'G:\Аниме\Онгоинги\!_36_Осень_2024\JamClub\MF Призрак\ТВ-2\[JamClub] MF Ghost 2 - 06_HEVC.mkv':
  Metadata:
    COMPATIBLE_BRANDS: isomiso2avc1mp41
    MAJOR_BRAND     : isom
    MINOR_VERSION   : 512
    ENCODER         : Lavf61.7.100
  Duration: 00:24:02.37, start: -0.001000, bitrate: 2203 kb/s
  Stream #0:0: Video: hevc (Main 10), yuv420p10le(tv, bt709, progressive), 1920x1080 [SAR 1:1 DAR 16:9], 23.98 fps, 23.98 tbr, 1k tbn (default)
      Metadata:
        HANDLER_NAME    : VideoHandler
        VENDOR_ID       : [0][0][0][0]
        ENCODER         : Lavc61.19.100 libx265
        BPS             : 2003731
        DURATION        : 00:24:02.232708333
        NUMBER_OF_FRAMES: 34579
        NUMBER_OF_BYTES : 361230621
        _STATISTICS_WRITING_APP: mkvpropedit v66.0.0 ('Josie') 64-bit
        _STATISTICS_WRITING_DATE_UTC: 2025-05-27 12:59:56
        _STATISTICS_TAGS: BPS DURATION NUMBER_OF_FRAMES NUMBER_OF_BYTES
  Stream #0:1(eng): Audio: aac (LC), 48000 Hz, stereo, fltp (default)
      Metadata:
        HANDLER_NAME    : SoundHandler
        VENDOR_ID       : [0][0][0][0]
        ENCODER         : Lavc61.19.100 aac
        BPS             : 195499
        DURATION        : 00:24:02.328000000
        NUMBER_OF_FRAMES: 67610
        NUMBER_OF_BYTES : 35246724
        _STATISTICS_WRITING_APP: mkvpropedit v66.0.0 ('Josie') 64-bit
        _STATISTICS_WRITING_DATE_UTC: 2025-05-27 12:59:56
        _STATISTICS_TAGS: BPS DURATION NUMBER_OF_FRAMES NUMBER_OF_BYTES
Input #1, mov,mp4,m4a,3gp,3g2,mj2, from 'G:\Аниме\Онгоинги\!_36_Осень_2024\JamClub\MF Призрак\ТВ-2\[JamClub] MF Ghost 2 - 06.mp4':
  Metadata:
    major_brand     : isom
    minor_version   : 512
    compatible_brands: isomiso2avc1mp41
    encoder         : Lavf60.16.100
  Duration: 00:24:02.35, start: 0.000000, bitrate: 5436 kb/s
  Stream #1:0[0x1](und): Video: h264 (High) (avc1 / 0x31637661), yuv420p(progressive), 1920x1080 [SAR 1:1 DAR 16:9], 5239 kb/s, 23.98 fps, 23.98 tbr, 90k tbn (default)
      Metadata:
        handler_name    : VideoHandler
        vendor_id       : [0][0][0][0]
  Stream #1:1[0x2](eng): Audio: aac (LC) (mp4a / 0x6134706D), 48000 Hz, stereo, fltp, 191 kb/s (default)
      Metadata:
        handler_name    : SoundHandler
        vendor_id       : [0][0][0][0]
Stream mapping:
  Stream #0:0 (hevc) -> settb:default
  Stream #1:0 (h264) -> settb:default
  ssim:default -> Stream #0:0 (wrapped_avframe)
  Stream #0:1 -> #0:1 (aac (native) -> pcm_s16le (native))
Output #0, null, to 'pipe:':
  Metadata:
    COMPATIBLE_BRANDS: isomiso2avc1mp41
    MAJOR_BRAND     : isom
    MINOR_VERSION   : 512
    encoder         : Lavf61.7.100
  Stream #0:0: Video: wrapped_avframe, yuv420p10le(tv, bt709, progressive), 1920x1080 [SAR 1:1 DAR 16:9], q=2-31, 200 kb/s, 23.98 fps, 23.98 tbn
      Metadata:
        encoder         : Lavc61.19.100 wrapped_avframe
  Stream #0:1(eng): Audio: pcm_s16le, 48000 Hz, stereo, s16, 1536 kb/s (default)
      Metadata:
        HANDLER_NAME    : SoundHandler
        VENDOR_ID       : [0][0][0][0]
        _STATISTICS_TAGS: BPS DURATION NUMBER_OF_FRAMES NUMBER_OF_BYTES
        BPS             : 195499
        DURATION        : 00:24:02.328000000
        NUMBER_OF_FRAMES: 67610
        NUMBER_OF_BYTES : 35246724
        _STATISTICS_WRITING_APP: mkvpropedit v66.0.0 ('Josie') 64-bit
        _STATISTICS_WRITING_DATE_UTC: 2025-05-27 12:59:56
        encoder         : Lavc61.19.100 pcm_s16le
frame=  112 fps=0.0 q=-0.0 size=N/A time=00:00:04.67 bitrate=N/A speed=9.25x    frame=  279 fps=271 q=-0.0 size=N/A time=00:00:11.63 bitrate=N/A speed=11.3x    frame=  473 fps=308 q=-0.0 size=N/A time=00:00:19.72 bitrate=N/A speed=12.8x    frame=  685 fps=332 q=-0.0 size=N/A time=00:00:28.57 bitrate=N/A speed=13.9x    frame=  868 fps=338 q=-0.0 size=N/A time=00:00:36.20 bitrate=N/A speed=14.1x    frame= 1054 fps=341 q=-0.0 size=N/A time=00:00:43.96 bitrate=N/A speed=14.2x    frame= 1258 fps=350 q=-0.0 size=N/A time=00:00:52.46 bitrate=N/A speed=14.6x    frame= 1437 fps=349 q=-0.0 size=N/A time=00:00:59.93 bitrate=N/A speed=14.6x    frame= 1644 fps=355 q=-0.0 size=N/A time=00:01:08.56 bitrate=N/A speed=14.8x    frame= 1840 fps=357 q=-0.0 size=N/A time=00:01:16.74 bitrate=N/A speed=14.9x    frame= 2039 fps=359 q=-0.0 size=N/A time=00:01:25.04 bitrate=N/A speed=  15x    frame= 2184 fps=353 q=-0.0 size=N/A time=00:01:31.09 bitrate=N/A speed=14.7x    frame= 2346 fps=350 q=-0.0 size=N/A time=00:01:37.84 bitrate=N/A speed=14.6x    frame= 2527 fps=351 q=-0.0 size=N/A time=00:01:45.39 bitrate=N/A speed=14.6x    frame= 2718 fps=351 q=-0.0 size=N/A time=00:01:53.36 bitrate=N/A speed=14.7x    frame= 2900 fps=352 q=-0.0 size=N/A time=00:02:00.95 bitrate=N/A speed=14.7x    frame= 3085 fps=352 q=-0.0 size=N/A time=00:02:08.67 bitrate=N/A speed=14.7x    frame= 3280 fps=354 q=-0.0 size=N/A time=00:02:16.80 bitrate=N/A speed=14.8x    frame= 3459 fps=353 q=-0.0 size=N/A time=00:02:24.26 bitrate=N/A speed=14.7x    frame= 3600 fps=349 q=-0.0 size=N/A time=00:02:30.15 bitrate=N/A speed=14.6x    frame= 3744 fps=346 q=-0.0 size=N/A time=00:02:36.15 bitrate=N/A speed=14.4x    frame= 3911 fps=345 q=-0.0 size=N/A time=00:02:43.12 bitrate=N/A speed=14.4x    frame= 4051 fps=342 q=-0.0 size=N/A time=00:02:48.96 bitrate=N/A speed=14.2x    frame= 4188 fps=339 q=-0.0 size=N/A time=00:02:54.67 bitrate=N/A speed=14.1x    frame= 4370 fps=339 q=-0.0 size=N/A time=00:03:02.26 bitrate=N/A speed=14.1x    frame= 4581 fps=342 q=-0.0 size=N/A time=00:03:11.06 bitrate=N/A speed=14.3x    frame= 4762 fps=342 q=-0.0 size=N/A time=00:03:18.61 bitrate=N/A speed=14.3x    frame= 4933 fps=342 q=-0.0 size=N/A time=00:03:25.74 bitrate=N/A speed=14.3x    frame= 5153 fps=345 q=-0.0 size=N/A time=00:03:34.92 bitrate=N/A speed=14.4x    frame= 5341 fps=345 q=-0.0 size=N/A time=00:03:42.76 bitrate=N/A speed=14.4x    frame= 5587 fps=350 q=-0.0 size=N/A time=00:03:53.02 bitrate=N/A speed=14.6x    frame= 5815 fps=353 q=-0.0 size=N/A time=00:04:02.53 bitrate=N/A speed=14.7x    frame= 6040 fps=355 q=-0.0 size=N/A time=00:04:11.91 bitrate=N/A speed=14.8x    frame= 6257 fps=357 q=-0.0 size=N/A time=00:04:20.96 bitrate=N/A speed=14.9x    frame= 6467 fps=358 q=-0.0 size=N/A time=00:04:29.72 bitrate=N/A speed=  15x    frame= 6697 fps=361 q=-0.0 size=N/A time=00:04:39.32 bitrate=N/A speed=15.1x    frame= 6926 fps=363 q=-0.0 size=N/A time=00:04:48.87 bitrate=N/A speed=15.1x    frame= 7119 fps=364 q=-0.0 size=N/A time=00:04:56.92 bitrate=N/A speed=15.2x    frame= 7328 fps=365 q=-0.0 size=N/A time=00:05:05.63 bitrate=N/A speed=15.2x    frame= 7520 fps=365 q=-0.0 size=N/A time=00:05:13.64 bitrate=N/A speed=15.2x    frame= 7747 fps=367 q=-0.0 size=N/A time=00:05:23.11 bitrate=N/A speed=15.3x    frame= 7932 fps=366 q=-0.0 size=N/A time=00:05:30.83 bitrate=N/A speed=15.3x    frame= 8172 fps=369 q=-0.0 size=N/A time=00:05:40.84 bitrate=N/A speed=15.4x    frame= 8408 fps=371 q=-0.0 size=N/A time=00:05:50.68 bitrate=N/A speed=15.5x    frame= 8631 fps=372 q=-0.0 size=N/A time=00:05:59.98 bitrate=N/A speed=15.5x    frame= 8872 fps=374 q=-0.0 size=N/A time=00:06:10.03 bitrate=N/A speed=15.6x    frame= 9073 fps=374 q=-0.0 size=N/A time=00:06:18.41 bitrate=N/A speed=15.6x    frame= 9300 fps=376 q=-0.0 size=N/A time=00:06:27.88 bitrate=N/A speed=15.7x    frame= 9559 fps=378 q=-0.0 size=N/A time=00:06:38.68 bitrate=N/A speed=15.8x    frame= 9773 fps=379 q=-0.0 size=N/A time=00:06:47.61 bitrate=N/A speed=15.8x    frame=10007 fps=381 q=-0.0 size=N/A time=00:06:57.37 bitrate=N/A speed=15.9x    frame=10224 fps=381 q=-0.0 size=N/A time=00:07:06.42 bitrate=N/A speed=15.9x    frame=10446 fps=382 q=-0.0 size=N/A time=00:07:15.68 bitrate=N/A speed=15.9x    frame=10659 fps=383 q=-0.0 size=N/A time=00:07:24.56 bitrate=N/A speed=  16x    frame=10899 fps=384 q=-0.0 size=N/A time=00:07:34.57 bitrate=N/A speed=  16x    frame=11117 fps=385 q=-0.0 size=N/A time=00:07:43.67 bitrate=N/A speed=16.1x    frame=11316 fps=385 q=-0.0 size=N/A time=00:07:51.97 bitrate=N/A speed=16.1x    frame=11528 fps=386 q=-0.0 size=N/A time=00:08:00.81 bitrate=N/A speed=16.1x    frame=11762 fps=387 q=-0.0 size=N/A time=00:08:10.57 bitrate=N/A speed=16.1x    frame=11990 fps=388 q=-0.0 size=N/A time=00:08:20.08 bitrate=N/A speed=16.2x    frame=12249 fps=389 q=-0.0 size=N/A time=00:08:30.88 bitrate=N/A speed=16.2x    frame=12454 fps=390 q=-0.0 size=N/A time=00:08:39.43 bitrate=N/A speed=16.3x    frame=12700 fps=391 q=-0.0 size=N/A time=00:08:49.69 bitrate=N/A speed=16.3x    frame=12969 fps=393 q=-0.0 size=N/A time=00:09:00.91 bitrate=N/A speed=16.4x    frame=13232 fps=395 q=-0.0 size=N/A time=00:09:11.88 bitrate=N/A speed=16.5x    frame=13497 fps=397 q=-0.0 size=N/A time=00:09:22.93 bitrate=N/A speed=16.5x    frame=13776 fps=399 q=-0.0 size=N/A time=00:09:34.57 bitrate=N/A speed=16.6x    frame=14023 fps=400 q=-0.0 size=N/A time=00:09:44.87 bitrate=N/A speed=16.7x    frame=14276 fps=401 q=-0.0 size=N/A time=00:09:55.42 bitrate=N/A speed=16.7x    frame=14533 fps=403 q=-0.0 size=N/A time=00:10:06.14 bitrate=N/A speed=16.8x    frame=14795 fps=404 q=-0.0 size=N/A time=00:10:17.07 bitrate=N/A speed=16.9x    frame=15057 fps=406 q=-0.0 size=N/A time=00:10:28.00 bitrate=N/A speed=16.9x    frame=15268 fps=406 q=-0.0 size=N/A time=00:10:36.80 bitrate=N/A speed=16.9x    frame=15514 fps=407 q=-0.0 size=N/A time=00:10:47.06 bitrate=N/A speed=  17x    frame=15761 fps=408 q=-0.0 size=N/A time=00:10:57.36 bitrate=N/A speed=  17x    frame=15996 fps=408 q=-0.0 size=N/A time=00:11:07.16 bitrate=N/A speed=  17x    frame=16225 fps=409 q=-0.0 size=N/A time=00:11:16.71 bitrate=N/A speed=  17x    frame=16439 fps=409 q=-0.0 size=N/A time=00:11:25.64 bitrate=N/A speed=17.1x    frame=16676 fps=409 q=-0.0 size=N/A time=00:11:35.52 bitrate=N/A speed=17.1x    frame=16930 fps=411 q=-0.0 size=N/A time=00:11:46.12 bitrate=N/A speed=17.1x    frame=17162 fps=411 q=-0.0 size=N/A time=00:11:55.79 bitrate=N/A speed=17.1x    frame=17361 fps=411 q=-0.0 size=N/A time=00:12:04.09 bitrate=N/A speed=17.1x    frame=17637 fps=412 q=-0.0 size=N/A time=00:12:15.60 bitrate=N/A speed=17.2x    frame=17856 fps=412 q=-0.0 size=N/A time=00:12:24.74 bitrate=N/A speed=17.2x    frame=18088 fps=413 q=-0.0 size=N/A time=00:12:34.42 bitrate=N/A speed=17.2x    frame=18351 fps=414 q=-0.0 size=N/A time=00:12:45.38 bitrate=N/A speed=17.3x    frame=18571 fps=414 q=-0.0 size=N/A time=00:12:54.56 bitrate=N/A speed=17.3x    frame=18799 fps=414 q=-0.0 size=N/A time=00:13:04.07 bitrate=N/A speed=17.3x    frame=18998 fps=414 q=-0.0 size=N/A time=00:13:12.37 bitrate=N/A speed=17.3x    frame=19249 fps=415 q=-0.0 size=N/A time=00:13:22.84 bitrate=N/A speed=17.3x    frame=19518 fps=416 q=-0.0 size=N/A time=00:13:34.06 bitrate=N/A speed=17.3x    frame=19718 fps=416 q=-0.0 size=N/A time=00:13:42.40 bitrate=N/A speed=17.3x    frame=19948 fps=416 q=-0.0 size=N/A time=00:13:51.99 bitrate=N/A speed=17.3x    frame=20183 fps=416 q=-0.0 size=N/A time=00:14:01.79 bitrate=N/A speed=17.4x    frame=20434 fps=417 q=-0.0 size=N/A time=00:14:12.26 bitrate=N/A speed=17.4x    frame=20647 fps=417 q=-0.0 size=N/A time=00:14:21.15 bitrate=N/A speed=17.4x    frame=20845 fps=417 q=-0.0 size=N/A time=00:14:29.41 bitrate=N/A speed=17.4x    frame=21044 fps=416 q=-0.0 size=N/A time=00:14:37.71 bitrate=N/A speed=17.4x    frame=21265 fps=417 q=-0.0 size=N/A time=00:14:46.92 bitrate=N/A speed=17.4x    frame=21496 fps=417 q=-0.0 size=N/A time=00:14:56.56 bitrate=N/A speed=17.4x    frame=21706 fps=417 q=-0.0 size=N/A time=00:15:05.32 bitrate=N/A speed=17.4x    frame=21913 fps=417 q=-0.0 size=N/A time=00:15:13.95 bitrate=N/A speed=17.4x    frame=22117 fps=416 q=-0.0 size=N/A time=00:15:22.46 bitrate=N/A speed=17.4x    frame=22363 fps=417 q=-0.0 size=N/A time=00:15:32.72 bitrate=N/A speed=17.4x    frame=22620 fps=418 q=-0.0 size=N/A time=00:15:43.44 bitrate=N/A speed=17.4x    frame=22880 fps=419 q=-0.0 size=N/A time=00:15:54.28 bitrate=N/A speed=17.5x    frame=23085 fps=418 q=-0.0 size=N/A time=00:16:02.83 bitrate=N/A speed=17.4x    frame=23296 fps=418 q=-0.0 size=N/A time=00:16:11.63 bitrate=N/A speed=17.4x    frame=23522 fps=418 q=-0.0 size=N/A time=00:16:21.06 bitrate=N/A speed=17.5x    frame=23743 fps=419 q=-0.0 size=N/A time=00:16:30.28 bitrate=N/A speed=17.5x    frame=23940 fps=418 q=-0.0 size=N/A time=00:16:38.49 bitrate=N/A speed=17.4x    frame=24154 fps=418 q=-0.0 size=N/A time=00:16:47.42 bitrate=N/A speed=17.4x    frame=24379 fps=418 q=-0.0 size=N/A time=00:16:56.80 bitrate=N/A speed=17.4x    frame=24664 fps=420 q=-0.0 size=N/A time=00:17:08.69 bitrate=N/A speed=17.5x    frame=24910 fps=420 q=-0.0 size=N/A time=00:17:18.95 bitrate=N/A speed=17.5x    frame=25157 fps=421 q=-0.0 size=N/A time=00:17:29.25 bitrate=N/A speed=17.5x    frame=25439 fps=422 q=-0.0 size=N/A time=00:17:41.01 bitrate=N/A speed=17.6x    frame=25680 fps=422 q=-0.0 size=N/A time=00:17:51.07 bitrate=N/A speed=17.6x    frame=25875 fps=422 q=-0.0 size=N/A time=00:17:59.20 bitrate=N/A speed=17.6x    frame=26111 fps=422 q=-0.0 size=N/A time=00:18:09.04 bitrate=N/A speed=17.6x    frame=26334 fps=422 q=-0.0 size=N/A time=00:18:18.34 bitrate=N/A speed=17.6x    frame=26583 fps=423 q=-0.0 size=N/A time=00:18:28.73 bitrate=N/A speed=17.6x    frame=26832 fps=423 q=-0.0 size=N/A time=00:18:39.11 bitrate=N/A speed=17.6x    frame=27038 fps=423 q=-0.0 size=N/A time=00:18:47.70 bitrate=N/A speed=17.6x    frame=27229 fps=422 q=-0.0 size=N/A time=00:18:55.67 bitrate=N/A speed=17.6x    frame=27437 fps=422 q=-0.0 size=N/A time=00:19:04.35 bitrate=N/A speed=17.6x    frame=27644 fps=422 q=-0.0 size=N/A time=00:19:12.98 bitrate=N/A speed=17.6x    frame=27848 fps=422 q=-0.0 size=N/A time=00:19:21.49 bitrate=N/A speed=17.6x    frame=28089 fps=422 q=-0.0 size=N/A time=00:19:31.54 bitrate=N/A speed=17.6x    frame=28313 fps=422 q=-0.0 size=N/A time=00:19:40.88 bitrate=N/A speed=17.6x    frame=28522 fps=422 q=-0.0 size=N/A time=00:19:49.60 bitrate=N/A speed=17.6x    frame=28744 fps=422 q=-0.0 size=N/A time=00:19:58.86 bitrate=N/A speed=17.6x    frame=28963 fps=422 q=-0.0 size=N/A time=00:20:07.99 bitrate=N/A speed=17.6x    frame=29176 fps=422 q=-0.0 size=N/A time=00:20:16.88 bitrate=N/A speed=17.6x    frame=29397 fps=422 q=-0.0 size=N/A time=00:20:26.09 bitrate=N/A speed=17.6x    frame=29627 fps=422 q=-0.0 size=N/A time=00:20:35.69 bitrate=N/A speed=17.6x    frame=29903 fps=423 q=-0.0 size=N/A time=00:20:47.20 bitrate=N/A speed=17.6x    frame=30139 fps=423 q=-0.0 size=N/A time=00:20:57.04 bitrate=N/A speed=17.7x    frame=30381 fps=424 q=-0.0 size=N/A time=00:21:07.14 bitrate=N/A speed=17.7x    frame=30624 fps=424 q=-0.0 size=N/A time=00:21:17.27 bitrate=N/A speed=17.7x    frame=30860 fps=424 q=-0.0 size=N/A time=00:21:27.11 bitrate=N/A speed=17.7x    frame=31121 fps=425 q=-0.0 size=N/A time=00:21:38.00 bitrate=N/A speed=17.7x    frame=31338 fps=425 q=-0.0 size=N/A time=00:21:47.05 bitrate=N/A speed=17.7x    frame=31561 fps=425 q=-0.0 size=N/A time=00:21:56.35 bitrate=N/A speed=17.7x    frame=31769 fps=425 q=-0.0 size=N/A time=00:22:05.03 bitrate=N/A speed=17.7x    frame=31994 fps=425 q=-0.0 size=N/A time=00:22:14.41 bitrate=N/A speed=17.7x    frame=32189 fps=425 q=-0.0 size=N/A time=00:22:22.54 bitrate=N/A speed=17.7x    frame=32419 fps=425 q=-0.0 size=N/A time=00:22:32.14 bitrate=N/A speed=17.7x    frame=32660 fps=425 q=-0.0 size=N/A time=00:22:42.19 bitrate=N/A speed=17.7x    frame=32872 fps=425 q=-0.0 size=N/A time=00:22:51.03 bitrate=N/A speed=17.7x    frame=33060 fps=424 q=-0.0 size=N/A time=00:22:58.87 bitrate=N/A speed=17.7x    frame=33294 fps=425 q=-0.0 size=N/A time=00:23:08.63 bitrate=N/A speed=17.7x    frame=33519 fps=425 q=-0.0 size=N/A time=00:23:18.02 bitrate=N/A speed=17.7x    frame=33755 fps=425 q=-0.0 size=N/A time=00:23:27.86 bitrate=N/A speed=17.7x    frame=33966 fps=425 q=-0.0 size=N/A time=00:23:36.66 bitrate=N/A speed=17.7x    frame=34209 fps=425 q=-0.0 size=N/A time=00:23:46.80 bitrate=N/A speed=17.7x    frame=34414 fps=425 q=-0.0 size=N/A time=00:23:55.35 bitrate=N/A speed=17.7x    [Parsed_ssim_10 @ 0000021374f8d100] SSIM Y:0.992446 (21.217980) U:0.996040 (24.022585) V:0.995848 (23.817753) All:0.993612 (21.946141)
[out#0/null @ 000002136e424ec0] video:14858KiB audio:270440KiB subtitle:0KiB other streams:0KiB global headers:0KiB muxing overhead: unknown
frame=34579 fps=425 q=-0.0 Lsize=N/A time=00:24:02.23 bitrate=N/A speed=17.7x    
